<svg width="24" height="24" viewBox="0 0 24 24" fill="none" xmlns="http://www.w3.org/2000/svg">
<path fill-rule="evenodd" clip-rule="evenodd" d="M9.559 21.4562C5.887 21.4562 2.75 20.9012 2.75 18.6772C2.75 16.4532 5.867 14.4492 9.559 14.4492C13.231 14.4492 16.367 16.4342 16.367 18.6572C16.367 20.8802 13.251 21.4562 9.559 21.4562Z" stroke="white" stroke-width="1.5" stroke-linecap="round" stroke-linejoin="round"/>
<path fill-rule="evenodd" clip-rule="evenodd" d="M9.55934 11.2778C11.9693 11.2778 13.9233 9.3238 13.9233 6.9138C13.9233 4.5038 11.9693 2.5498 9.55934 2.5498C7.14934 2.5498 5.19534 4.5038 5.19534 6.9138C5.18634 9.3158 7.12734 11.2698 9.52834 11.2778H9.55934Z" stroke="white" stroke-width="1.5" stroke-linecap="round" stroke-linejoin="round"/>
<path d="M16.8003 10.0786C18.2033 9.70364 19.2373 8.42464 19.2373 6.90264C19.2383 5.31464 18.1113 3.98864 16.6133 3.68164" stroke="white" stroke-width="1.5" stroke-linecap="round" stroke-linejoin="round"/>
<path d="M17.4609 13.6533C19.4489 13.6533 21.1469 15.0013 21.1469 16.2043C21.1469 16.9133 20.5619 17.6413 19.6719 17.8503" stroke="white" stroke-width="1.5" stroke-linecap="round" stroke-linejoin="round"/>
</svg>
