<svg width="24" height="24" viewBox="0 0 24 24" fill="none" xmlns="http://www.w3.org/2000/svg">
<path fill-rule="evenodd" clip-rule="evenodd" d="M11.9708 20.3681C8.73184 20.3681 5.96484 19.8781 5.96484 17.9161C5.96484 15.9541 8.71384 14.2461 11.9708 14.2461C15.2098 14.2461 17.9768 15.9381 17.9768 17.8991C17.9768 19.8601 15.2278 20.3681 11.9708 20.3681Z" stroke="white" stroke-width="1.5" stroke-linecap="round" stroke-linejoin="round"/>
<path fill-rule="evenodd" clip-rule="evenodd" d="M11.9711 11.449C14.0971 11.449 15.8211 9.726 15.8211 7.6C15.8211 5.474 14.0971 3.75 11.9711 3.75C9.84511 3.75 8.12111 5.474 8.12111 7.6C8.11511 9.718 9.82511 11.442 11.9441 11.449H11.9711Z" stroke="white" stroke-width="1.5" stroke-linecap="round" stroke-linejoin="round"/>
<path d="M18.3613 10.392C19.5983 10.061 20.5103 8.93302 20.5103 7.59002C20.5103 6.18902 19.5173 5.01902 18.1953 4.74902" stroke="white" stroke-width="1.5" stroke-linecap="round" stroke-linejoin="round"/>
<path d="M18.9453 13.5449C20.6993 13.5449 22.1973 14.7339 22.1973 15.7959C22.1973 16.4209 21.6803 17.1019 20.8963 17.2859" stroke="white" stroke-width="1.5" stroke-linecap="round" stroke-linejoin="round"/>
<path d="M5.58359 10.392C4.34559 10.061 3.43359 8.93302 3.43359 7.59002C3.43359 6.18902 4.42759 5.01902 5.74859 4.74902" stroke="white" stroke-width="1.5" stroke-linecap="round" stroke-linejoin="round"/>
<path d="M5.002 13.5449C3.248 13.5449 1.75 14.7339 1.75 15.7959C1.75 16.4209 2.267 17.1019 3.052 17.2859" stroke="white" stroke-width="1.5" stroke-linecap="round" stroke-linejoin="round"/>
</svg>
