<svg width="24" height="24" viewBox="0 0 24 24" fill="none" xmlns="http://www.w3.org/2000/svg">
<path fill-rule="evenodd" clip-rule="evenodd" d="M9.92356 21.8087C6.10956 21.8087 2.85156 21.2317 2.85156 18.9217C2.85156 16.6117 6.08856 14.5107 9.92356 14.5107C13.7376 14.5107 16.9956 16.5917 16.9956 18.9007C16.9956 21.2097 13.7586 21.8087 9.92356 21.8087Z" stroke="white" stroke-width="1.5" stroke-linecap="round" stroke-linejoin="round"/>
<path fill-rule="evenodd" clip-rule="evenodd" d="M9.92366 11.2164C12.4267 11.2164 14.4567 9.18639 14.4567 6.68339C14.4567 4.17939 12.4267 2.15039 9.92366 2.15039C7.42066 2.15039 5.39066 4.17939 5.39066 6.68339C5.38166 9.17739 7.39766 11.2074 9.89165 11.2164H9.92366Z" stroke="white" stroke-width="1.5" stroke-linecap="round" stroke-linejoin="round"/>
<path d="M19.1328 8.12988V12.1399" stroke="white" stroke-width="1.5" stroke-linecap="round" stroke-linejoin="round"/>
<path d="M21.1798 10.1348H17.0898" stroke="white" stroke-width="1.5" stroke-linecap="round" stroke-linejoin="round"/>
</svg>
