<svg width="24" height="24" viewBox="0 0 24 24" fill="none" xmlns="http://www.w3.org/2000/svg">
<path d="M5.69244 6.43083C15.5408 5.09359 17.9678 5.2577 19.4983 7.00049C21.0288 8.74327 20.6704 14.4886 18.8814 16.0876C17.0934 17.6866 9.32844 17.8386 6.86844 16.0876C4.26944 14.2366 5.77744 8.54259 5.69244 5.09359C5.74344 3.16359 3.64844 2.85059 3.64844 2.85059" stroke="white" stroke-width="1.5" stroke-linecap="round" stroke-linejoin="round"/>
<path d="M14.1562 10.7197H16.9293" stroke="white" stroke-width="1.5" stroke-linecap="round" stroke-linejoin="round"/>
<path fill-rule="evenodd" clip-rule="evenodd" d="M7.26375 20.1279C7.56375 20.1279 7.80775 20.3719 7.80775 20.6719C7.80775 20.9729 7.56375 21.2169 7.26375 21.2169C6.96275 21.2169 6.71875 20.9729 6.71875 20.6719C6.71875 20.3719 6.96275 20.1279 7.26375 20.1279Z" fill="white" stroke="white" stroke-width="1.5" stroke-linecap="round" stroke-linejoin="round"/>
<path fill-rule="evenodd" clip-rule="evenodd" d="M17.5948 20.1279C17.8958 20.1279 18.1398 20.3719 18.1398 20.6719C18.1398 20.9729 17.8958 21.2169 17.5948 21.2169C17.2948 21.2169 17.0508 20.9729 17.0508 20.6719C17.0508 20.3719 17.2948 20.1279 17.5948 20.1279Z" fill="white" stroke="white" stroke-width="1.5" stroke-linecap="round" stroke-linejoin="round"/>
</svg>
