<svg width="24" height="24" viewBox="0 0 24 24" fill="none" xmlns="http://www.w3.org/2000/svg">
<path fill-rule="evenodd" clip-rule="evenodd" d="M20.999 6.6738C20.999 8.7024 19.3538 10.3476 17.3252 10.3476C15.2966 10.3476 13.6523 8.7024 13.6523 6.6738C13.6523 4.6452 15.2966 3 17.3252 3C19.3538 3 20.999 4.6452 20.999 6.6738Z" stroke="white" stroke-width="1.5" stroke-linecap="round" stroke-linejoin="round"/>
<path fill-rule="evenodd" clip-rule="evenodd" d="M10.3467 6.6738C10.3467 8.7024 8.7024 10.3476 6.6729 10.3476C4.6452 10.3476 3 8.7024 3 6.6738C3 4.6452 4.6452 3 6.6729 3C8.7024 3 10.3467 4.6452 10.3467 6.6738Z" stroke="white" stroke-width="1.5" stroke-linecap="round" stroke-linejoin="round"/>
<path fill-rule="evenodd" clip-rule="evenodd" d="M20.999 17.2617C20.999 19.2903 19.3538 20.9346 17.3252 20.9346C15.2966 20.9346 13.6523 19.2903 13.6523 17.2617C13.6523 15.2331 15.2966 13.5879 17.3252 13.5879C19.3538 13.5879 20.999 15.2331 20.999 17.2617Z" stroke="white" stroke-width="1.5" stroke-linecap="round" stroke-linejoin="round"/>
<path fill-rule="evenodd" clip-rule="evenodd" d="M10.3467 17.2617C10.3467 19.2903 8.7024 20.9346 6.6729 20.9346C4.6452 20.9346 3 19.2903 3 17.2617C3 15.2331 4.6452 13.5879 6.6729 13.5879C8.7024 13.5879 10.3467 15.2331 10.3467 17.2617Z" stroke="white" stroke-width="1.5" stroke-linecap="round" stroke-linejoin="round"/>
</svg>
