<svg width="24" height="24" viewBox="0 0 24 24" fill="none" xmlns="http://www.w3.org/2000/svg">
<path d="M11.1444 17.8829H4.67188" stroke="white" stroke-width="1.5" stroke-linecap="round" stroke-linejoin="round"/>
<path fill-rule="evenodd" clip-rule="evenodd" d="M15.207 17.8839C15.207 19.9257 15.8879 20.6057 17.9288 20.6057C19.9697 20.6057 20.6506 19.9257 20.6506 17.8839C20.6506 15.8421 19.9697 15.1621 17.9288 15.1621C15.8879 15.1621 15.207 15.8421 15.207 17.8839Z" stroke="white" stroke-width="1.5" stroke-linecap="round" stroke-linejoin="round"/>
<path d="M14.1758 7.39366H20.6474" stroke="white" stroke-width="1.5" stroke-linecap="round" stroke-linejoin="round"/>
<path fill-rule="evenodd" clip-rule="evenodd" d="M10.1163 7.39269C10.1163 5.35179 9.43545 4.6709 7.39456 4.6709C5.35277 4.6709 4.67188 5.35179 4.67188 7.39269C4.67188 9.43448 5.35277 10.1145 7.39456 10.1145C9.43545 10.1145 10.1163 9.43448 10.1163 7.39269Z" stroke="white" stroke-width="1.5" stroke-linecap="round" stroke-linejoin="round"/>
</svg>
