<svg width="24" height="24" viewBox="0 0 24 24" fill="none" xmlns="http://www.w3.org/2000/svg">
<path d="M6.42 17.7298C4.19 16.2698 2.75 14.0698 2.75 12.1398C2.75 8.85984 6.89 4.83984 12 4.83984C14.09 4.83984 16.03 5.50984 17.59 6.54984" stroke="white" stroke-width="1.5" stroke-linecap="round" stroke-linejoin="round"/>
<path d="M19.8511 8.61035C20.7421 9.74035 21.2611 10.9904 21.2611 12.1404C21.2611 15.4204 17.1111 19.4404 12.0011 19.4404C11.0911 19.4404 10.2021 19.3104 9.37109 19.0804" stroke="white" stroke-width="1.5" stroke-linecap="round" stroke-linejoin="round"/>
<path d="M9.76486 14.3667C9.16986 13.7777 8.83686 12.9747 8.83986 12.1377C8.83586 10.3927 10.2479 8.97469 11.9939 8.97169C12.8339 8.96969 13.6399 9.30269 14.2339 9.89669" stroke="white" stroke-width="1.5" stroke-linecap="round" stroke-linejoin="round"/>
<path d="M15.1112 12.6992C14.8772 13.9912 13.8662 15.0042 12.5742 15.2412" stroke="white" stroke-width="1.5" stroke-linecap="round" stroke-linejoin="round"/>
<path d="M19.8912 4.25L4.11719 20.024" stroke="white" stroke-width="1.5" stroke-linecap="round" stroke-linejoin="round"/>
</svg>
